<svg xmlns="http://www.w3.org/2000/svg" viewBox="0 0 1024 1024" width="1024" height="1024">
<defs>
  <linearGradient id="bg" x1="0" y1="0" x2="1" y2="1"><stop offset="0" stop-color="#a6ff4d"/><stop offset="1" stop-color="#22d3c5"/></linearGradient>
  <linearGradient id="gloss" x1="0" y1="0" x2="0" y2="1"><stop offset="0" stop-color="#fff" stop-opacity=".22"/><stop offset=".5" stop-color="#fff" stop-opacity="0"/></linearGradient>
  <filter id="sh" x="-20%" y="-20%" width="140%" height="140%"><feDropShadow dx="0" dy="14" stdDeviation="18" flood-color="#000" flood-opacity=".35"/></filter>
</defs>
<g filter="url(#sh)"><rect x="100.0" y="90.0" width="824" height="824" rx="185.4" fill="url(#bg)"/></g>
<rect x="100.0" y="90.0" width="824" height="824" rx="185.4" fill="url(#gloss)"/>
<g transform="translate(100.0,90.0) scale(8.24)"><circle cx="50" cy="50" r="27" fill="none" stroke="#fff" stroke-opacity=".55" stroke-width="7"/><path d="M16.00,50.00 L18.83,46.16 L21.67,42.58 L24.50,39.50 L27.33,37.14 L30.17,35.66 L33.00,35.15 L35.83,35.66 L38.67,37.14 L41.50,39.50 L44.33,42.58 L47.17,46.16 L50.00,50.00 L52.83,53.84 L55.67,57.42 L58.50,60.50 L61.33,62.86 L64.17,64.34 L67.00,64.85 L69.83,64.34 L72.67,62.86 L75.50,60.50 L78.33,57.43 L81.17,53.84 L84.00,50.00" fill="none" stroke="#fff" stroke-width="8.5" stroke-linecap="round" stroke-linejoin="round"/></g>
</svg>